# xmcd CD database file
#
# Track frame offsets:
#	150
#	12550
#	38050
#	60270
#	81831
#	101518
#	121231
#	152184
#	175231
#	192415
#
# Disc length: 2874 seconds
#
# Revision: 1
# Processed by: cddbd v1.5.2PL0 Copyright (c) Steve Scherf et al.
# Submitted via: CDex 1.70beta2
#
DISCID=790b380a
DTITLE=Various Artist - Summer Chill CD 01
DYEAR=2008
DGENRE=New Age
TTITLE0=Faithless/Crazy English Summer
TTITLE1=Groove Armada/Dusk You and Me
TTITLE2=Skinny/Failure
TTITLE3=Cariocas/Free Spirit
TTITLE4=Faith Keepers/Rain
TTITLE5=Circlous/Il Sole
TTITLE6=Guidance/Personal Reality
TTITLE7=Dove Souls/Free and Beautifull
TTITLE8=Kwaio/Mojito LIfe
TTITLE9=Rio Orchestra/Salsa Del Rios
EXTD=YEAR: 2008
EXTT0=
EXTT1=
EXTT2=
EXTT3=
EXTT4=
EXTT5=
EXTT6=
EXTT7=
EXTT8=
EXTT9=
PLAYORDER=
